<svg width="22" height="23" viewBox="0 0 22 23" fill="currentColor" xmlns="http://www.w3.org/2000/svg">
<path d="M3.43305 2.04482C3.49128 1.01473 3.73734 0.566795 4.44297 0.207085C5.20222 -0.180076 6.3997 9.70364e-05 7.80878 0.713635C8.4157 1.02112 8.4775 1.02737 9.54114 0.891005C10.9549 0.709675 12.775 0.710315 14.0799 0.892665C15.0667 1.03057 15.1315 1.02367 15.7399 0.715555C17.74 -0.297296 19.3191 -0.231025 19.8909 0.889725C20.1763 1.44915 20.2293 2.90073 20.008 4.09797C19.8853 4.76171 19.8983 4.84458 20.1939 5.28014C22.2736 8.34487 20.7751 13.3126 17.2114 15.1665C16.9387 15.3084 16.7089 15.3962 16.5216 15.4677C15.9465 15.6873 15.7719 15.754 15.9833 16.7648C16.0851 17.251 16.2077 18.4598 16.2559 19.4512C16.343 21.2432 16.3417 21.2557 16.0274 21.6213C15.5996 22.1186 14.983 22.127 14.5652 21.6412C14.2927 21.3244 14.2661 21.1748 14.2661 19.9525C14.2661 18.1462 14.0681 16.9456 13.6003 15.9168C13.044 14.6925 13.4564 14.236 14.7286 13.9624C16.4969 13.582 17.878 12.4907 18.6478 10.8656C19.3797 9.32083 19.49 7.18603 18.1668 5.8877C17.7905 5.44053 17.7643 5.03549 18.033 3.81412C18.1334 3.35763 18.2176 2.7687 18.2201 2.50528C18.2239 2.08926 18.186 2.02643 17.9305 2.02643C17.7688 2.02643 17.151 2.26164 16.5578 2.54907L15.611 3.00797C15.5249 3.04968 15.4286 3.06572 15.3336 3.05482C12.9261 2.77848 10.6385 2.77421 8.21926 3.0559C8.1239 3.067 8.02718 3.05096 7.9408 3.00904L6.99449 2.54984C6.40123 2.26189 5.78346 2.02643 5.62181 2.02643C5.24805 2.02643 5.24244 2.30237 5.58312 3.9418C5.79123 4.94306 5.93127 5.16615 5.32966 5.96674C4.4279 7.16678 4.20265 8.65695 4.68622 10.2226C5.29569 12.1956 6.78815 13.5285 8.88637 13.9732C10.1512 14.2413 10.4818 14.5911 9.99884 16.0415C9.61864 17.1829 9.37824 17.4771 8.82571 17.4771C8.08229 17.4771 7.61661 16.8331 7.87289 16.1592C7.98577 15.8622 7.95219 15.8305 7.25575 15.5765C5.12981 14.8014 3.50379 13.0641 2.76037 10.7733C2.18576 9.00286 2.43859 6.69841 3.3604 5.30555C3.67426 4.83131 3.67911 4.79108 3.53264 3.88319C3.44977 3.36925 3.40496 2.54205 3.43305 2.04482Z" fill="currentColor"/>
<path d="M2.69055 14.9964C2.3842 14.5369 1.76333 14.4127 1.3038 14.7191C0.844281 15.0254 0.720101 15.6463 1.02645 16.1058C1.25262 16.4451 1.52319 16.7238 1.75296 16.9535C1.79532 16.9959 1.83648 17.0368 1.87667 17.0767C2.06914 17.2679 2.23908 17.4367 2.40976 17.6371C2.78727 18.0802 3.16388 18.677 3.37792 19.7472C3.47326 20.2239 3.81591 20.4807 4.00577 20.5929C4.21167 20.7145 4.43664 20.7862 4.62177 20.8329C5.00048 20.9284 5.46021 20.978 5.89651 21.0069C6.37547 21.0387 6.89444 21.049 7.35851 21.0518C7.35885 21.6037 7.80643 22.0511 8.3585 22.0511C8.91079 22.0511 9.3585 21.6034 9.3585 21.0511V20.0511C9.3585 19.4988 8.91079 19.0511 8.3585 19.0511C8.26423 19.0511 8.16224 19.0514 8.05421 19.0518C7.46735 19.0536 6.7024 19.0559 6.0287 19.0113C5.70383 18.9898 5.43677 18.9593 5.24093 18.922C4.93935 17.7381 4.45214 16.9504 3.93225 16.3401C3.70243 16.0704 3.46445 15.8344 3.27088 15.6424C3.23464 15.6065 3.19996 15.5721 3.16717 15.5393C2.94382 15.316 2.79772 15.1572 2.69055 14.9964Z" fill="currentColor"/>
</svg>
