<svg width="22" height="23" viewBox="0 0 22 23" fill="currentColor" xmlns="http://www.w3.org/2000/svg">
<g>
<path id="Vector" d="M5.5 7.5C6.32843 7.5 7 6.82843 7 6C7 5.17157 6.32843 4.5 5.5 4.5C4.67157 4.5 4 5.17157 4 6C4 6.82843 4.67157 7.5 5.5 7.5Z" fill="currentColor"/>
<path id="Vector_2" d="M4 9.5C4 8.94772 4.44772 8.5 5 8.5H6C6.55228 8.5 7 8.94771 7 9.5V17.5C7 18.0523 6.55228 18.5 6 18.5H5C4.44772 18.5 4 18.0523 4 17.5V9.5Z" fill="currentColor"/>
<path id="Vector_3" d="M10 18.5H11C11.5523 18.5 12 18.0523 12 17.5V13C12 11.5 15 10.5 15 12.5V17.5004C15 18.0527 15.4477 18.5 16 18.5H17C17.5523 18.5 18 18.0523 18 17.5V11.5C18 9.5 16.5 8.5 14.5 8.5C12.5 8.5 12 10 12 10V9.5C12 8.94771 11.5523 8.5 11 8.5H10C9.4477 8.5 9 8.94772 9 9.5V17.5C9 18.0523 9.4477 18.5 10 18.5Z" fill="currentColor"/>
<path id="Vector_4" fill-rule="evenodd" clip-rule="evenodd" d="M19 0.5C20.6569 0.5 22 1.84315 22 3.5V19.5C22 21.1569 20.6569 22.5 19 22.5H3C1.34315 22.5 0 21.1569 0 19.5V3.5C0 1.84315 1.34315 0.5 3 0.5H19ZM19 2.5C19.5523 2.5 20 2.94772 20 3.5V19.5C20 20.0523 19.5523 20.5 19 20.5H3C2.44772 20.5 2 20.0523 2 19.5V3.5C2 2.94772 2.44772 2.5 3 2.5H19Z" fill="currentColor"/>
</g>
</svg>
