<svg width="928" height="510" viewBox="0 0 928 510" fill="none" xmlns="http://www.w3.org/2000/svg">
<mask id="mask0_219_1801" style="mask-type:luminance" maskUnits="userSpaceOnUse" x="0" y="0" width="410" height="510">
<path d="M409.75 0.91217H0.25V509.088H409.75V0.91217Z" fill="white"/>
</mask>
<g mask="url(#mask0_219_1801)">
<path d="M228.674 217.031C219.379 217.031 210.465 213.339 203.892 206.766C197.32 200.194 193.627 191.28 193.627 181.985C193.627 172.69 197.32 163.776 203.892 157.203C210.465 150.63 219.379 146.938 228.674 146.938C258.098 146.906 286.306 135.203 307.114 114.398C327.918 93.5926 339.623 65.3837 339.657 35.96C339.657 26.6651 343.349 17.7508 349.922 11.1783C356.493 4.60576 365.408 0.913345 374.702 0.913345C383.998 0.913345 392.913 4.60576 399.484 11.1783C406.058 17.7508 409.75 26.6651 409.75 35.96C409.695 83.9671 390.601 129.992 356.654 163.938C322.707 197.884 276.681 216.978 228.674 217.031Z" fill="#07C631"/>
<path d="M35.2978 509.088C26.0027 509.088 17.0881 505.396 10.5153 498.822C3.94258 492.249 0.25 483.336 0.25 474.04C0.303974 426.032 19.399 380.006 53.3457 346.06C87.2926 312.113 133.319 293.019 181.326 292.966C190.621 292.966 199.535 296.658 206.108 303.232C212.68 309.803 216.373 318.718 216.373 328.014C216.373 337.308 212.68 346.223 206.108 352.794C199.535 359.367 190.621 363.06 181.326 363.06C151.902 363.093 123.693 374.796 102.887 395.6C82.0807 416.407 70.3769 444.616 70.3433 474.04C70.3433 483.334 66.6511 492.249 60.0789 498.822C53.5067 505.396 44.5927 509.088 35.2978 509.088Z" fill="#10AC45"/>
<path d="M228.674 509.088C219.429 509.011 210.589 505.285 204.079 498.722C197.569 492.158 193.916 483.286 193.916 474.04C193.916 464.796 197.569 455.925 204.079 449.361C210.589 442.797 219.429 439.071 228.674 438.995C243.248 438.995 257.681 436.123 271.144 430.548C284.61 424.97 296.843 416.794 307.149 406.49C317.456 396.183 325.629 383.948 331.207 370.485C336.785 357.019 339.654 342.586 339.654 328.012C339.654 313.437 336.785 299.007 331.207 285.541C325.629 272.078 317.456 259.843 307.149 249.536C296.843 239.231 284.61 231.056 271.144 225.479C257.681 219.902 243.248 217.031 228.674 217.031C219.379 217.031 210.465 213.339 203.892 206.766C197.32 200.194 193.627 191.28 193.627 181.984C193.627 172.69 197.32 163.775 203.892 157.203C210.465 150.63 219.379 146.938 228.674 146.938C252.509 146.851 276.125 151.471 298.17 160.532C320.217 169.593 340.256 182.917 357.139 199.74C374.023 216.563 387.422 236.554 396.562 258.566C405.703 280.578 410.41 304.177 410.41 328.012C410.41 351.846 405.703 375.448 396.562 397.46C387.422 419.471 374.023 439.462 357.139 456.285C340.256 473.109 320.217 486.434 298.17 495.495C276.125 504.556 252.509 509.174 228.674 509.088Z" fill="url(#paint0_linear_219_1801)"/>
<path d="M354.183 166.351C371.761 149.489 385.747 129.245 395.296 106.836C404.846 84.4275 409.762 60.3184 409.75 35.96C409.75 26.6651 406.058 17.7508 399.484 11.1783C392.913 4.60576 383.998 0.913345 374.704 0.913345C365.408 0.913345 356.493 4.60576 349.922 11.1783C343.349 17.7508 339.657 26.6651 339.657 35.96C339.647 54.8121 334.837 73.3513 325.677 89.8292C316.52 106.307 303.316 120.181 287.309 130.142C311.914 137.337 334.71 149.679 354.183 166.351Z" fill="url(#paint1_linear_219_1801)"/>
<path d="M181.326 363.06C133.302 363.06 87.2449 343.982 53.2872 310.024C19.3292 276.067 0.251892 230.009 0.251892 181.986C0.251892 133.962 19.3292 87.9054 53.2872 53.9474C87.2449 19.9895 133.302 0.91217 181.326 0.91217C190.621 0.91217 199.535 4.60458 206.107 11.1771C212.68 17.7496 216.372 26.6639 216.372 35.9588C216.372 45.2537 212.68 54.1679 206.107 60.7406C199.535 67.3131 190.621 71.0054 181.326 71.0054C166.751 71.0054 152.32 73.8759 138.855 79.4532C125.39 85.0306 113.156 93.2054 102.851 103.511C92.5451 113.816 84.3704 126.051 78.793 139.516C73.2157 152.98 70.3452 167.412 70.3452 181.986C70.3452 196.56 73.2157 210.991 78.793 224.456C84.3704 237.921 92.5451 250.155 102.851 260.461C113.156 270.765 125.39 278.941 138.855 284.519C152.32 290.095 166.751 292.966 181.326 292.966C190.621 292.966 199.535 296.658 206.107 303.232C212.68 309.803 216.372 318.718 216.372 328.012C216.372 337.308 212.68 346.223 206.107 352.794C199.535 359.367 190.621 363.06 181.326 363.06Z" fill="url(#paint2_linear_219_1801)"/>
<path d="M55.8194 343.646C38.2401 360.509 24.2545 380.753 14.7046 403.162C5.15462 425.572 0.237761 449.68 0.25004 474.04C0.211759 478.668 1.09001 483.255 2.83411 487.542C4.5782 491.827 7.15366 495.725 10.4118 499.009C13.67 502.296 17.5465 504.904 21.8175 506.682C26.0886 508.462 30.6698 509.378 35.2966 509.378C39.9237 509.378 44.505 508.462 48.776 506.682C53.047 504.904 56.9234 502.296 60.1816 499.009C63.4398 495.725 66.0151 491.827 67.7593 487.542C69.5034 483.255 70.3817 478.668 70.3433 474.04C70.3526 455.188 75.1637 436.648 84.3228 420.169C93.4817 403.69 106.687 389.816 122.693 379.855C98.0879 372.661 75.293 360.317 55.8194 343.646Z" fill="#18CD4B"/>
</g>
<path d="M542.156 379.506C542.156 391.485 540.984 402.064 538.641 411.244C536.362 420.359 532.911 428.041 528.289 434.291C523.732 440.476 518.068 445.163 511.297 448.353C504.591 451.478 496.811 453.041 487.957 453.041C479.168 453.041 471.388 451.446 464.617 448.256C457.846 445.066 452.15 440.378 447.527 434.193C442.905 427.943 439.422 420.228 437.078 411.049C434.734 401.869 433.562 391.29 433.562 379.31C433.562 363.425 435.613 350.046 439.715 339.174C443.882 328.301 450.001 320.066 458.074 314.467C466.212 308.868 476.173 306.068 487.957 306.068C499.806 306.068 509.734 308.835 517.742 314.369C525.815 319.903 531.902 328.139 536.004 339.076C540.105 349.949 542.156 363.425 542.156 379.506ZM468.914 379.506C468.914 389.206 469.63 397.312 471.062 403.822C472.495 410.333 474.611 415.215 477.41 418.471C480.275 421.661 483.79 423.256 487.957 423.256C492.254 423.256 495.77 421.693 498.504 418.568C501.303 415.443 503.354 410.658 504.656 404.213C506.023 397.702 506.707 389.467 506.707 379.506C506.707 364.402 505.145 353.269 502.02 346.107C498.96 338.881 494.272 335.268 487.957 335.268C483.79 335.268 480.275 336.928 477.41 340.248C474.611 343.503 472.495 348.419 471.062 354.994C469.63 361.504 468.914 369.675 468.914 379.506ZM617.352 451.088L592.742 355.092H591.961C592.286 359.389 592.547 363.555 592.742 367.592C593.003 371.563 593.198 375.339 593.328 378.92C593.458 382.501 593.523 385.886 593.523 389.076V451.088H561.785V308.314H608.367L630.535 394.057H631.121L653.387 308.314H699.578V451.088H666.961V388.49C666.961 384.909 667.026 381.361 667.156 377.846C667.286 374.265 667.449 370.587 667.645 366.81C667.84 363.034 668.068 359.128 668.328 355.092H667.547L642.547 451.088H617.352ZM774.48 451.088H740.691V337.709H714.91V308.314H800.066V337.709H774.48V451.088ZM919.891 379.506C919.891 391.485 918.719 402.064 916.375 411.244C914.096 420.359 910.646 428.041 906.023 434.291C901.466 440.476 895.802 445.163 889.031 448.353C882.326 451.478 874.546 453.041 865.691 453.041C856.902 453.041 849.122 451.446 842.352 448.256C835.581 445.066 829.884 440.378 825.262 434.193C820.639 427.943 817.156 420.228 814.812 411.049C812.469 401.869 811.297 391.29 811.297 379.31C811.297 363.425 813.348 350.046 817.449 339.174C821.616 328.301 827.736 320.066 835.809 314.467C843.947 308.868 853.908 306.068 865.691 306.068C877.54 306.068 887.469 308.835 895.477 314.369C903.549 319.903 909.637 328.139 913.738 339.076C917.84 349.949 919.891 363.425 919.891 379.506ZM846.648 379.506C846.648 389.206 847.365 397.312 848.797 403.822C850.229 410.333 852.345 415.215 855.145 418.471C858.009 421.661 861.525 423.256 865.691 423.256C869.988 423.256 873.504 421.693 876.238 418.568C879.038 415.443 881.089 410.658 882.391 404.213C883.758 397.702 884.441 389.467 884.441 379.506C884.441 364.402 882.879 353.269 879.754 346.107C876.694 338.881 872.007 335.268 865.691 335.268C861.525 335.268 858.009 336.928 855.145 340.248C852.345 343.503 850.229 348.419 848.797 354.994C847.365 361.504 846.648 369.675 846.648 379.506Z" fill="url(#paint3_linear_219_1801)"/>
<defs>
<linearGradient id="paint0_linear_219_1801" x1="302.018" y1="509.088" x2="302.018" y2="146.937" gradientUnits="userSpaceOnUse">
<stop stop-color="#08A70E"/>
<stop offset="1" stop-color="#19F349"/>
</linearGradient>
<linearGradient id="paint1_linear_219_1801" x1="320.491" y1="149.311" x2="432.032" y2="43.5696" gradientUnits="userSpaceOnUse">
<stop offset="0.005" stop-color="#1CD018"/>
<stop offset="0.146" stop-color="#38F319"/>
<stop offset="1" stop-color="#2AF319"/>
</linearGradient>
<linearGradient id="paint2_linear_219_1801" x1="108.312" y1="363.06" x2="108.312" y2="0.91217" gradientUnits="userSpaceOnUse">
<stop stop-color="#17C629"/>
<stop offset="1" stop-color="#1CDA18"/>
</linearGradient>
<linearGradient id="paint3_linear_219_1801" x1="676.75" y1="237.088" x2="676.75" y2="509.088" gradientUnits="userSpaceOnUse">
<stop stop-color="#18C827"/>
<stop offset="1" stop-color="#067B0D"/>
</linearGradient>
</defs>
</svg>
