<svg width="512" height="512" viewBox="0 0 512 512" fill="none" xmlns="http://www.w3.org/2000/svg">
<mask id="mask0_61_677" style="mask-type:luminance" maskUnits="userSpaceOnUse" x="51" y="1" width="410" height="510">
<path d="M460.75 1.91217H51.25V510.088H460.75V1.91217Z" fill="white"/>
</mask>
<g mask="url(#mask0_61_677)">
<path d="M279.674 218.031C270.379 218.031 261.465 214.339 254.892 207.766C248.32 201.194 244.627 192.28 244.627 182.985C244.627 173.69 248.32 164.776 254.892 158.203C261.465 151.63 270.379 147.938 279.674 147.938C309.098 147.906 337.306 136.203 358.114 115.398C378.918 94.5926 390.623 66.3837 390.657 36.96C390.657 27.6651 394.349 18.7508 400.922 12.1783C407.493 5.60576 416.408 1.91335 425.702 1.91335C434.998 1.91335 443.913 5.60576 450.484 12.1783C457.058 18.7508 460.75 27.6651 460.75 36.96C460.695 84.9671 441.601 130.992 407.654 164.938C373.707 198.884 327.681 217.978 279.674 218.031Z" fill="#07C631"/>
<path d="M86.2978 510.088C77.0027 510.088 68.0881 506.396 61.5153 499.822C54.9426 493.249 51.25 484.336 51.25 475.04C51.304 427.032 70.399 381.006 104.346 347.06C138.293 313.113 184.319 294.019 232.326 293.966C241.621 293.966 250.535 297.658 257.108 304.232C263.68 310.803 267.373 319.718 267.373 329.014C267.373 338.308 263.68 347.223 257.108 353.794C250.535 360.367 241.621 364.06 232.326 364.06C202.902 364.093 174.693 375.796 153.887 396.6C133.081 417.407 121.377 445.616 121.343 475.04C121.343 484.334 117.651 493.249 111.079 499.822C104.507 506.396 95.5927 510.088 86.2978 510.088Z" fill="#10AC45"/>
<path d="M279.674 510.088C270.429 510.011 261.589 506.285 255.079 499.722C248.569 493.158 244.916 484.286 244.916 475.04C244.916 465.796 248.569 456.925 255.079 450.361C261.589 443.797 270.429 440.071 279.674 439.995C294.248 439.995 308.681 437.123 322.144 431.548C335.61 425.97 347.843 417.794 358.149 407.49C368.456 397.183 376.629 384.948 382.207 371.485C387.785 358.019 390.654 343.586 390.654 329.012C390.654 314.437 387.785 300.007 382.207 286.541C376.629 273.078 368.456 260.843 358.149 250.536C347.843 240.231 335.61 232.056 322.144 226.479C308.681 220.902 294.248 218.031 279.674 218.031C270.379 218.031 261.465 214.339 254.892 207.766C248.32 201.194 244.627 192.28 244.627 182.984C244.627 173.69 248.32 164.775 254.892 158.203C261.465 151.63 270.379 147.938 279.674 147.938C303.509 147.851 327.125 152.471 349.17 161.532C371.217 170.593 391.256 183.917 408.139 200.74C425.023 217.563 438.422 237.554 447.562 259.566C456.703 281.578 461.41 305.177 461.41 329.012C461.41 352.846 456.703 376.448 447.562 398.46C438.422 420.471 425.023 440.462 408.139 457.285C391.256 474.109 371.217 487.434 349.17 496.495C327.125 505.556 303.509 510.174 279.674 510.088Z" fill="url(#paint0_linear_61_677)"/>
<path d="M405.183 167.351C422.761 150.489 436.747 130.245 446.296 107.836C455.846 85.4275 460.762 61.3184 460.75 36.96C460.75 27.6651 457.058 18.7508 450.484 12.1783C443.913 5.60576 434.998 1.91335 425.705 1.91335C416.408 1.91335 407.493 5.60576 400.922 12.1783C394.349 18.7508 390.657 27.6651 390.657 36.96C390.647 55.8121 385.837 74.3513 376.677 90.8292C367.52 107.307 354.316 121.181 338.309 131.142C362.914 138.337 385.71 150.679 405.183 167.351Z" fill="url(#paint1_linear_61_677)"/>
<path d="M232.326 364.06C184.302 364.06 138.245 344.982 104.287 311.024C70.3292 277.067 51.2519 231.009 51.2519 182.986C51.2519 134.962 70.3292 88.9054 104.287 54.9474C138.245 20.9895 184.302 1.91217 232.326 1.91217C241.621 1.91217 250.535 5.60458 257.107 12.1771C263.68 18.7496 267.372 27.6639 267.372 36.9588C267.372 46.2537 263.68 55.1679 257.107 61.7406C250.535 68.313 241.621 72.0054 232.326 72.0054C217.751 72.0054 203.32 74.8759 189.855 80.4532C176.39 86.0306 164.156 94.2054 153.851 104.511C143.545 114.816 135.37 127.051 129.793 140.516C124.216 153.98 121.345 168.412 121.345 182.986C121.345 197.56 124.216 211.991 129.793 225.456C135.37 238.921 143.545 251.155 153.851 261.461C164.156 271.765 176.39 279.941 189.855 285.519C203.32 291.095 217.751 293.966 232.326 293.966C241.621 293.966 250.535 297.658 257.107 304.232C263.68 310.803 267.372 319.718 267.372 329.012C267.372 338.308 263.68 347.223 257.107 353.794C250.535 360.367 241.621 364.06 232.326 364.06Z" fill="url(#paint2_linear_61_677)"/>
<path d="M106.819 344.646C89.2401 361.509 75.2545 381.753 65.7046 404.162C56.1546 426.572 51.2378 450.68 51.25 475.04C51.2118 479.668 52.09 484.255 53.8341 488.542C55.5782 492.827 58.1537 496.725 61.4118 500.009C64.67 503.296 68.5465 505.904 72.8175 507.682C77.0886 509.462 81.6698 510.378 86.2966 510.378C90.9237 510.378 95.505 509.462 99.776 507.682C104.047 505.904 107.923 503.296 111.182 500.009C114.44 496.725 117.015 492.827 118.759 488.542C120.503 484.255 121.382 479.668 121.343 475.04C121.353 456.188 126.164 437.648 135.323 421.169C144.482 404.69 157.687 390.816 173.693 380.855C149.088 373.661 126.293 361.317 106.819 344.646Z" fill="#18CD4B"/>
</g>
<defs>
<linearGradient id="paint0_linear_61_677" x1="353.018" y1="510.088" x2="353.018" y2="147.937" gradientUnits="userSpaceOnUse">
<stop stop-color="#08A70E"/>
<stop offset="1" stop-color="#19F349"/>
</linearGradient>
<linearGradient id="paint1_linear_61_677" x1="371.491" y1="150.311" x2="483.032" y2="44.5696" gradientUnits="userSpaceOnUse">
<stop offset="0.005" stop-color="#1CD018"/>
<stop offset="0.146" stop-color="#38F319"/>
<stop offset="1" stop-color="#2AF319"/>
</linearGradient>
<linearGradient id="paint2_linear_61_677" x1="159.312" y1="364.06" x2="159.312" y2="1.91217" gradientUnits="userSpaceOnUse">
<stop stop-color="#17C629"/>
<stop offset="1" stop-color="#1CDA18"/>
</linearGradient>
</defs>
</svg>
