<svg width="23" height="20" viewBox="0 0 23 20" fill="currentColor" xmlns="http://www.w3.org/2000/svg">
<path fill-rule="evenodd" clip-rule="evenodd" d="M19.6413 1.9404C19.9898 1.8578 20.2328 1.77659 20.4319 1.6913C20.7109 1.57176 20.9422 1.42856 21.3077 1.18739C21.6148 0.984704 22.0084 0.967054 22.3324 1.14143C22.6564 1.31581 22.8585 1.65405 22.8585 2.02201C22.8585 3.10294 22.7238 3.98888 22.412 4.76855C22.1496 5.42436 21.781 5.95702 21.3401 6.44183C21.1539 9.80495 20.1804 12.4461 18.6921 14.447C17.1495 16.5209 15.0971 17.849 12.9336 18.5928C10.7764 19.3343 8.4971 19.5 6.45517 19.2489C4.42664 18.9995 2.55151 18.3279 1.24452 17.3114C0.886605 17.033 0.760788 16.5486 0.937985 16.1312C1.11518 15.7138 1.55103 15.4679 1.99991 15.5321C3.28588 15.7158 4.52377 15.4234 5.54167 15.0054C5.34129 14.8964 5.15236 14.7784 4.97675 14.6568C4.04922 14.0147 3.30087 13.143 2.96405 12.4693C2.82466 12.1906 2.82322 11.8627 2.96016 11.5828C3.0308 11.4383 3.13409 11.3152 3.25952 11.2213C1.90525 10.1036 1.35846 8.55765 1.35846 7.52201C1.35846 7.21407 1.50034 6.9233 1.74306 6.7338C1.84512 6.65412 1.96022 6.59607 2.08155 6.56111C1.98021 6.26437 1.90157 5.96456 1.84163 5.67431C1.57586 4.38745 1.59945 2.93499 1.88832 1.77948C1.98717 1.38406 2.31611 1.08821 2.71976 1.03167C3.1234 0.975144 3.52097 1.16924 3.72465 1.52229C4.80217 3.38997 6.78963 4.53158 8.63933 5.20783C9.50898 5.52577 10.3144 5.72837 10.9181 5.85293C11.0484 4.63234 11.3892 3.62575 11.9123 2.82626C12.6024 1.77147 13.5649 1.1474 14.5985 0.869134C16.3812 0.389234 18.3593 0.935974 19.6413 1.9404ZM10.6069 7.8306C9.92177 7.69302 8.98018 7.46191 7.95259 7.08623C6.59537 6.59004 5.01935 5.81633 3.69919 4.61786C3.72282 4.8384 3.75636 5.05707 3.8003 5.26981C4.02155 6.34114 4.43267 6.94114 4.80568 7.12764C5.26189 7.35575 5.47331 7.89065 5.29634 8.36905C5.05674 9.01675 4.42657 9.06985 3.85399 8.92675C4.31451 9.61715 5.14224 10.3056 6.52286 10.5357C6.99904 10.6151 7.35055 11.0233 7.35833 11.506C7.36612 11.9887 7.02796 12.408 6.55458 12.5027L5.68412 12.6768C5.81729 12.7925 5.96147 12.906 6.11517 13.0124C6.81209 13.4949 7.51183 13.703 8.11593 13.552C8.56838 13.4389 9.03895 13.6535 9.2501 14.0694C9.46126 14.4852 9.35693 14.9918 8.99865 15.2903C8.35473 15.8263 7.60273 16.2564 6.84904 16.6133C6.49522 16.7809 6.09981 16.9463 5.67037 17.0919C6.00065 17.1624 6.34433 17.2202 6.69925 17.2639C8.46983 17.4816 10.4406 17.3348 12.2834 16.7014C14.1199 16.0701 15.8174 14.9607 17.0874 13.2534C18.3555 11.5484 19.2405 9.18885 19.3592 5.98506C19.3685 5.73282 19.4729 5.49344 19.6514 5.31496C20.101 4.86531 20.4726 4.34992 20.6554 3.73645C20.3355 3.83618 19.9753 3.9225 19.5463 4.00452C19.2208 4.06674 18.8857 3.96371 18.6514 3.72942C17.8869 2.96489 16.3749 2.46213 15.1184 2.80037C14.5271 2.95956 13.9896 3.30418 13.5859 3.92121C13.1738 4.55119 12.8585 5.5326 12.8585 7.02205C12.8585 7.30503 12.7386 7.57475 12.5286 7.76436C12.0306 8.21385 11.1925 7.94818 10.6069 7.8306Z" fill="currentColor"/>
</svg>
